<svg width="73" height="58" viewBox="0 0 73 58" fill="none" xmlns="http://www.w3.org/2000/svg">
<path d="M63.9413 25.6298C60.8059 26.6832 57.7471 27.7207 56.7232 28.1739C56.7073 28.0974 56.7073 28.0974 56.7073 28.0974L27.5449 38.4145C27.5449 38.4145 11.9253 43.1905 11.5665 49.8957L51.5038 49.8727C55.2985 45.0869 57.4405 38.8885 57.1709 32.2345C57.1483 31.3605 57.0492 30.5025 56.9501 29.6444C59.2913 28.9963 67.8108 26.1806 68.2597 22.9715C68.2597 22.9715 67.8103 24.2635 63.9413 25.6298ZM46.4403 32.8752L54.5896 29.8173C54.5896 29.8173 54.926 35.2591 51.6567 36.8198L46.4403 32.8752Z" fill="#3A6AD4"/>
<path d="M29.9643 6.14889C21.5142 6.23399 13.9998 10.0382 9.0347 16.1067C5.72462 20.1523 3.91087 25.2438 4.12274 30.4719C4.40837 37.2025 8.19997 45.0391 26.7249 37.3403L29.4776 36.3667L24.2803 32.8975C24.2803 32.8975 26.4459 31.4072 29.7255 32.9599C33.0211 34.5891 36.3096 33.5037 36.3096 33.5037L46.0023 27.887L41.1827 29.2918L30.2204 22.3119C32.8453 20.7259 36.5997 20.3421 40.4312 21.8595C44.2626 23.377 50.6429 25.2414 54.7894 24.0569C55.0031 23.9324 55.2328 23.8845 55.4625 23.8366C57.1147 23.3322 61.4623 22.3454 61.4623 22.3454C58.92 22.7958 55.9471 23.0964 55.1656 23.1796C51.1725 13.2282 41.3139 6.17788 30.0408 6.13292L29.9643 6.14889Z" fill="#304659"/>
</svg>
