<?xml version="1.0" encoding="utf-8"?><svg xml:space="preserve" viewBox="0 0 100 100" y="0" x="0" xmlns="http://www.w3.org/2000/svg" id="Layer_1" version="1.1" width="200px" height="200px" xmlns:xlink="http://www.w3.org/1999/xlink" style="width:100%;height:100%;background-size:initial;background-repeat-y:initial;background-repeat-x:initial;background-position-y:initial;background-position-x:initial;background-origin:initial;background-image:initial;background-color:rgb(255, 255, 255);background-clip:initial;background-attachment:initial;animation-play-state:paused" ><g class="ldl-scale" style="transform-origin:50% 50%;transform:rotate(0deg) scale(0.8, 0.8);animation-play-state:paused" ><circle fill="#333" r="40" cy="50" cx="50" style="fill:rgb(51, 51, 51);animation-play-state:paused" ></circle>
<path fill="#fff" d="M59.797 45.405a12.104 12.104 0 0 0 2.39-7.218C62.187 31.467 56.72 26 50 26s-12.187 5.467-12.187 12.187c0 2.703.895 5.194 2.39 7.218-3.307 2.174-5.498 5.912-5.498 10.157v.171l-.001.006V63.2l.001.006V74h30.591V55.562c-.001-4.245-2.192-7.983-5.499-10.157zm-18.749-7.218c0-4.936 4.016-8.952 8.952-8.952s8.952 4.016 8.952 8.952a8.906 8.906 0 0 1-2.138 5.791 8.965 8.965 0 0 1-3.905 2.665c-.914.315-1.89.495-2.909.495s-1.996-.18-2.909-.495a8.985 8.985 0 0 1-3.905-2.665 8.906 8.906 0 0 1-2.138-5.791zm-3.108 19.17h4.799v4.225H37.94v-4.225zm24.12 13.408H37.939v-5.947h6.417c.893 0 1.618-.724 1.618-1.618v-7.461c0-.894-.725-1.618-1.618-1.618h-6.29a8.93 8.93 0 0 1 4.445-6.339 12.115 12.115 0 0 0 14.977 0c2.724 1.528 4.572 4.441 4.572 7.78v15.203z" style="fill:rgb(255, 255, 255);animation-play-state:paused" ></path>
<metadata xmlns:d="https://loading.io/stock/" style="animation-play-state:paused" ><d:name style="animation-play-state:paused" >host</d:name>


<d:tags style="animation-play-state:paused" >host,owner,leader,founder,organizer,person in charge,manager,chief</d:tags>


<d:license style="animation-play-state:paused" >by</d:license>


<d:slug style="animation-play-state:paused" >nju0gu</d:slug></metadata></g><!-- generated by https://loading.io/ --></svg>