<svg width="32" height="31" viewBox="0 0 32 31" fill="none" xmlns="http://www.w3.org/2000/svg">
<path d="M16.2899 0.489258C7.64987 0.489258 0.637695 7.30525 0.637695 15.7035C0.637695 24.1018 7.64987 30.9178 16.2899 30.9178C24.9299 30.9178 31.942 24.1018 31.942 15.7035C31.942 7.30525 24.9299 0.489258 16.2899 0.489258ZM16.2899 5.05354C18.8881 5.05354 20.9855 7.09225 20.9855 9.61782C20.9855 12.1434 18.8881 14.1821 16.2899 14.1821C13.6916 14.1821 11.5942 12.1434 11.5942 9.61782C11.5942 7.09225 13.6916 5.05354 16.2899 5.05354ZM16.2899 26.6578C12.3768 26.6578 8.9177 24.7104 6.89856 21.7588C6.94552 18.7312 13.1594 17.0728 16.2899 17.0728C19.4047 17.0728 25.6342 18.7312 25.6812 21.7588C23.662 24.7104 20.2029 26.6578 16.2899 26.6578Z" fill="#304659"/>
</svg>
